<?xml version="1.0" standalone="no"?>
<!DOCTYPE svg PUBLIC "-//W3C//DTD SVG 20010904//EN"
 "http://www.w3.org/TR/2001/REC-SVG-20010904/DTD/svg10.dtd">
<svg version="1.0" xmlns="http://www.w3.org/2000/svg"
 width="1024.000000pt" height="1024.000000pt" viewBox="0 0 1024.000000 1024.000000"
 preserveAspectRatio="xMidYMid meet">
<metadata>
Created by potrace 1.14, written by Peter Selinger 2001-2017
</metadata>
<g transform="translate(0.000000,1024.000000) scale(0.100000,-0.100000)"
fill="#000000" stroke="none">
<path d="M5098 9085 c-2 -1 -24 -5 -50 -8 -25 -3 -77 -20 -115 -38 -62 -29
-226 -105 -393 -181 -36 -16 -92 -42 -125 -58 -112 -52 -220 -102 -405 -187
-102 -47 -232 -107 -289 -134 -57 -27 -105 -49 -106 -49 -2 0 -52 -23 -112
-51 -119 -56 -195 -92 -203 -94 -3 -1 -39 -17 -80 -37 -105 -49 -279 -130
-375 -173 -27 -13 -79 -36 -115 -53 -147 -68 -244 -113 -278 -128 -20 -10 -71
-33 -112 -53 -41 -19 -77 -36 -80 -36 -3 -1 -32 -14 -65 -29 -33 -16 -91 -43
-130 -61 -38 -18 -106 -49 -150 -70 -44 -20 -154 -71 -245 -112 -224 -103
-244 -118 -202 -156 14 -13 189 -98 407 -197 22 -10 81 -37 130 -60 50 -23
110 -51 135 -62 25 -12 87 -40 138 -64 52 -24 95 -44 97 -44 2 0 50 -22 107
-49 203 -96 265 -125 428 -198 91 -41 176 -81 190 -88 33 -18 221 -105 226
-105 2 0 41 -17 86 -39 197 -92 700 -324 788 -364 54 -24 125 -57 300 -139 47
-22 128 -59 180 -83 52 -23 145 -66 205 -95 109 -52 159 -65 245 -63 87 1 100
5 240 70 47 22 108 50 135 63 62 28 305 140 400 185 39 18 122 56 185 85 63
29 144 66 180 83 36 17 67 31 70 32 3 1 39 18 80 37 41 20 127 59 190 88 174
79 224 103 354 164 65 31 120 56 122 56 2 0 41 18 86 39 46 21 202 94 348 161
146 67 297 137 335 155 62 29 123 57 375 173 134 62 337 156 400 185 36 17 67
31 70 31 17 3 81 48 86 61 13 33 9 35 -414 229 -136 63 -281 129 -322 149 -41
19 -158 73 -260 120 -102 47 -221 102 -265 122 -77 36 -240 111 -375 173 -36
16 -99 46 -140 65 -41 19 -155 71 -252 116 -97 44 -224 103 -283 131 -58 27
-107 50 -109 50 -2 0 -50 22 -107 49 -93 44 -279 130 -429 199 -30 13 -97 44
-148 68 -52 24 -95 44 -97 44 -2 0 -55 25 -118 55 -222 105 -238 111 -329 119
-20 2 -38 3 -40 1z"/>
<path d="M2419 5764 c-49 -11 -212 -88 -772 -364 -171 -84 -205 -110 -192
-149 5 -15 215 -124 793 -412 433 -215 1122 -558 1532 -762 410 -204 747 -372
750 -372 3 -1 120 -59 260 -130 l255 -129 75 0 75 0 1090 543 c600 299 1406
700 1792 892 519 258 703 354 708 369 13 41 -21 66 -207 158 -750 368 -739
364 -808 363 -62 0 -198 -51 -300 -112 -8 -5 -24 -13 -35 -18 -23 -10 -110
-53 -370 -183 -654 -327 -1485 -738 -1494 -738 -5 0 -11 -3 -13 -7 -5 -13
-311 -160 -348 -168 -43 -9 -137 -9 -180 0 -19 4 -518 248 -1109 543 -592 295
-1078 536 -1081 537 -3 1 -52 25 -110 54 -180 91 -228 104 -311 85z"/>
<path d="M2340 3452 c-151 -63 -835 -403 -862 -429 -34 -32 -35 -54 -5 -86 17
-19 503 -267 522 -267 3 0 22 -11 43 -24 20 -12 39 -23 42 -23 3 0 140 -67
305 -148 165 -81 431 -212 590 -290 299 -147 913 -450 1325 -653 129 -64 237
-117 240 -117 3 -1 121 -59 263 -129 242 -120 262 -128 317 -128 67 0 7 -27
705 317 713 352 1086 535 1092 535 3 0 17 9 31 19 15 10 29 19 32 19 6 0 345
165 708 345 149 75 272 132 272 129 0 -4 4 -2 8 4 4 6 41 27 82 46 289 137
713 354 725 371 8 12 15 29 15 37 0 29 -75 85 -160 120 -14 5 -32 14 -40 20
-8 5 -76 38 -150 73 -74 36 -225 109 -335 163 -110 54 -209 100 -220 103 -11
3 -69 6 -130 5 l-110 0 -666 -332 c-366 -183 -670 -332 -676 -332 -6 0 -13 -3
-15 -7 -1 -5 -73 -42 -158 -84 -85 -43 -334 -166 -553 -275 -389 -193 -400
-197 -459 -196 -56 1 -77 9 -316 128 -142 70 -696 345 -1232 612 l-975 485
-105 4 c-86 3 -113 0 -150 -15z"/>
</g>
</svg>
